# Blender v2.79 (sub 0) OBJ File: 'boat.blend'
# www.blender.org
mtllib bottt.mtl
o Cube
v -2.077672 0.040323 8.329566
v -3.393517 0.622461 -3.944306
v -2.125934 2.018093 9.469363
v -3.658186 2.648114 -4.836774
v -3.051805 -0.078223 6.287538
v -3.856655 0.001518 4.253705
v -4.178650 0.108608 2.210918
v -4.224194 0.256812 0.164533
v -3.984241 0.433863 -1.886384
v -3.263732 1.989286 7.096334
v -4.198854 1.964598 4.719107
v -4.574066 2.088502 2.338516
v -4.627091 2.259232 -0.046333
v -4.347279 2.457703 -2.436820
v -1.811512 0.046989 8.324125
v -1.028818 0.681687 -3.992644
v -1.815768 2.025861 9.463023
v -0.902514 2.717133 -4.893105
v -0.916879 -0.024751 6.243896
v -0.200763 0.093084 4.178973
v 0.031772 0.214062 2.124850
v -0.013771 0.362267 0.078465
v -0.345843 0.524991 -1.960759
v -0.775820 2.051599 7.045478
v 0.061497 2.071303 4.632018
v 0.332500 2.211392 2.238218
v 0.279473 2.382121 -0.146631
v -0.107316 2.563897 -2.523492
v -1.944592 0.043664 8.326846
v -2.225234 0.690281 -4.609800
v -1.970893 2.023757 9.466306
v -2.287570 2.702800 -5.193416
v -1.971427 -0.593980 6.232849
v -2.013161 -0.605764 4.176771
v -2.057608 -0.503611 2.127597
v -2.103267 -0.350545 0.081507
v -2.149650 -0.167107 -1.962744
v -2.050786 0.074104 8.124022
v -3.350071 0.637859 -3.742833
v -2.090594 2.032164 9.191996
v -3.600373 2.640949 -4.573042
v -2.997410 -0.057601 6.140007
v -3.785435 0.037598 4.144212
v -4.096057 0.143687 2.176606
v -4.140176 0.287325 0.199500
v -3.908102 0.459280 -1.786208
v -3.185200 1.995695 6.883047
v -4.099881 1.972862 4.566656
v -4.457962 2.094774 2.288835
v -4.509042 2.259423 0.000790
v -4.239988 2.451578 -2.298173
v -1.848427 0.079172 8.119885
v -1.064715 0.695098 -3.789550
v -1.863067 2.037863 9.187345
v -0.949076 2.707353 -4.627239
v -0.978218 -0.007028 6.098732
v -0.278111 0.125443 4.072516
v -0.053804 0.244930 2.093976
v -0.097712 0.388573 0.116865
v -0.419004 0.546668 -1.857531
v -0.863220 2.053851 6.835582
v -0.043909 2.074448 4.483746
v 0.214296 2.211795 2.193326
v 0.163585 2.376453 -0.094726
v -0.208413 2.552553 -2.380585
v -1.949568 0.080097 8.128096
v -2.221526 0.707081 -4.407825
v -1.977257 2.037129 9.171362
v -2.281260 2.691720 -4.898334
v -2.163348 0.408274 -1.927882
v -2.116967 0.224881 0.116371
v -2.071309 0.071883 2.162465
v -2.026865 -0.030168 4.211646
v -1.985136 -0.018152 6.267737
v -2.207452 0.668560 -3.766517
v -1.949568 0.080097 8.128096
v -0.419004 0.546668 -1.857531
v -0.097712 0.388573 0.116865
v -0.053804 0.244930 2.093976
v -0.278111 0.125443 4.072516
v -0.978218 -0.007028 6.098732
v -1.064715 0.695098 -3.789550
v -1.848427 0.079172 8.119885
v -3.908102 0.459280 -1.786208
v -4.140176 0.287325 0.199500
v -2.050786 0.074104 8.124022
v -3.350071 0.637859 -3.742833
v -2.997410 -0.057601 6.140007
v -3.785435 0.037598 4.144212
v -4.096057 0.143687 2.176606
vt 0.293674 0.182356
vt 0.204974 0.120679
vt 0.204974 0.182356
vt 0.953620 0.316924
vt 0.941970 0.438678
vt 0.943623 0.316924
vt -0.166038 0.545104
vt -0.314257 0.334035
vt -0.092811 0.334035
vt 0.737173 0.175414
vt 0.648473 0.182356
vt 0.737173 0.182356
vt 0.648473 0.126672
vt 0.559774 0.182356
vt 0.559774 0.087002
vt 0.471074 0.182356
vt 0.471074 0.072539
vt 0.382374 0.182356
vt 0.293674 0.087459
vt 1.014421 0.334035
vt 0.866201 0.545104
vt 0.792975 0.334035
vt 0.608141 0.545104
vt 0.571528 0.334035
vt 0.350082 0.545104
vt 0.350082 0.334035
vt 0.128636 0.334035
vt 0.092022 0.545104
vt 1.074048 0.343621
vt 0.857075 0.641039
vt 0.857075 0.343621
vt 0.293674 0.796789
vt 0.204974 0.735112
vt 0.293674 0.701892
vt 0.965271 0.438678
vt 0.953620 0.438678
vt -0.215379 0.414336
vt -0.069900 0.621503
vt 0.001974 0.414336
vt 0.648473 0.796789
vt 0.737173 0.789847
vt 0.737173 0.796789
vt 0.559774 0.796789
vt 0.648473 0.741105
vt 0.471074 0.796789
vt 0.559774 0.701435
vt 0.382374 0.796789
vt 0.471074 0.686972
vt 0.382374 0.686972
vt 1.088739 0.414336
vt 0.943259 0.621503
vt 1.196548 0.621503
vt 0.871386 0.414336
vt 0.689969 0.621503
vt 0.654033 0.414336
vt 0.436680 0.621503
vt 0.219327 0.414336
vt 0.436680 0.414336
vt 0.183390 0.621503
vt 0.640102 0.343621
vt 0.604228 0.641039
vt 0.941970 0.438678
vt 0.953620 0.316924
vt 0.943623 0.316924
vt -0.314257 0.334035
vt -0.166038 0.545104
vt -0.092811 0.334035
vt 0.866201 0.545104
vt 1.014421 0.334035
vt 0.792975 0.334035
vt 0.608141 0.545104
vt 0.571528 0.334035
vt 0.350082 0.545104
vt 0.350082 0.334035
vt 0.128636 0.334035
vt 0.092022 0.545104
vt 0.857075 0.543063
vt 0.931097 0.441597
vt 0.857075 0.441597
vt 0.965271 0.438678
vt 0.953620 0.438678
vt 0.006652 0.881113
vt -0.138828 0.673945
vt 0.078525 0.673945
vt 1.019810 0.881113
vt 1.165291 0.673945
vt 1.273100 0.881113
vt 0.766521 0.881113
vt 0.947938 0.673945
vt 0.513231 0.881113
vt 0.730585 0.673945
vt 0.295878 0.673945
vt 0.513231 0.673945
vt 0.259941 0.881113
vt 0.783053 0.441597
vt 0.770814 0.543063
vt 1.051290 0.150725
vt 1.020123 0.133367
vt 1.052279 0.129218
vt -0.302898 -0.207054
vt -0.550394 -0.110272
vt -0.579737 -0.118749
vt 0.781514 -0.033961
vt 0.756694 -0.023689
vt 0.494801 -0.154319
vt 0.512567 -0.167440
vt 0.243112 -0.225368
vt 0.236928 -0.209669
vt -0.023888 -0.222850
vt -0.028673 -0.239076
vt -0.287685 -0.192053
vt -0.589258 0.070249
vt -0.556105 0.071836
vt 1.018548 0.164931
vt 1.017275 0.149037
vt -0.331937 0.374680
vt -0.568560 0.253635
vt -0.315303 0.361214
vt 0.764386 0.309151
vt 1.050131 0.172249
vt 0.467040 0.401811
vt 0.740712 0.296494
vt 0.209528 0.447427
vt 0.483411 0.416659
vt -0.055888 0.418202
vt 0.204941 0.431136
vt -0.062268 0.433925
vt -0.598608 0.259282
vt -0.424098 0.545104
vt 0.382374 0.072539
vt 1.124261 0.545104
vt 1.109922 0.641039
vt 0.204974 0.796789
vt 0.963618 0.316924
vt -0.323190 0.621503
vt -0.424098 0.545104
vt 1.124261 0.545104
vt 0.943336 0.543063
vt 0.963618 0.316924
vt -0.246638 0.881113
vt 1.618602 0.970222
vt 1.257380 0.458003
vt 1.618690 0.458003
vt -0.344480 0.458003
vt -0.704635 0.503358
vt -0.705790 0.458003
vt 0.055985 0.458003
vt -0.315739 0.910567
vt 0.456450 0.458003
vt 0.077427 1.244103
vt 0.856914 0.458003
vt 0.463189 1.363997
vt 1.237842 1.240017
vt 1.618602 -0.054215
vt 1.237842 -0.324011
vt -0.704635 0.412648
vt -0.315739 0.005440
vt 0.077427 -0.328095
vt 0.463189 -0.447990
vt 0.850103 -0.448037
vt 0.850103 1.364044
vn 0.0214 -0.9867 -0.1609
vn -0.5764 -0.6510 -0.4940
vn -0.0002 -0.6264 -0.7795
vn 0.0323 -0.7822 0.6222
vn -0.4310 0.3915 0.8130
vn -0.4095 -0.6889 0.5981
vn -0.7973 0.5906 -0.1243
vn -0.7306 -0.6565 -0.1878
vn 0.0274 -0.9913 0.1288
vn -0.7099 -0.6450 0.2828
vn 0.0251 -0.9997 0.0029
vn -0.7330 -0.6622 0.1552
vn 0.0239 -0.9983 -0.0531
vn -0.7423 -0.6696 0.0241
vn 0.0230 -0.9955 -0.0914
vn -0.7452 0.5823 0.3249
vn -0.7905 0.5690 0.2265
vn -0.7925 0.6004 0.1071
vn -0.7411 -0.6662 -0.0827
vn -0.7997 0.6004 0.0032
vn -0.0306 0.5304 -0.8471
vn 0.5876 -0.6218 -0.5178
vn 0.7542 -0.6193 -0.2181
vn 0.4437 0.4134 0.7951
vn 0.0057 0.4855 0.8742
vn 0.7610 0.6296 -0.1562
vn 0.4675 -0.6669 0.5802
vn 0.7522 -0.6084 0.2529
vn 0.7710 -0.6245 0.1245
vn 0.7752 -0.6316 -0.0069
vn 0.7696 -0.6283 -0.1136
vn 0.7277 0.6192 0.2948
vn 0.7696 0.6081 0.1946
vn 0.7652 0.6394 0.0753
vn 0.7681 0.6396 -0.0288
vn 0.5438 0.4899 -0.6813
vn 0.0690 0.9566 -0.2829
vn -0.0299 0.4780 -0.8778
vn 0.5834 0.3940 -0.7102
vn 0.7657 0.2802 0.5789
vn 0.5675 0.8011 0.1902
vn 0.9583 0.2094 0.1944
vn 0.5361 0.8063 -0.2497
vn 0.8943 0.2254 -0.3865
vn 0.5800 0.8033 -0.1353
vn 0.9486 0.2063 -0.2398
vn 0.6123 0.7906 -0.0035
vn 0.9795 0.1861 -0.0770
vn 0.9805 0.1888 0.0536
vn 0.6044 0.7911 0.0938
vn -0.0105 0.8504 0.5260
vn 0.0138 0.2403 0.9706
vn -0.1283 0.9517 -0.2789
vn -0.0320 0.8470 -0.5306
vn -0.5987 0.7719 0.2140
vn -0.7544 0.2421 0.6100
vn -0.9588 0.1614 0.2336
vn -0.5856 0.7782 -0.2268
vn -0.6309 0.3636 -0.6854
vn -0.6245 0.7731 -0.1106
vn -0.9195 0.1800 -0.3494
vn -0.6507 0.7590 0.0223
vn -0.9668 0.1583 -0.2006
vn -0.9857 0.1395 0.0938
vn -0.9899 0.1368 -0.0368
vn -0.6389 0.7600 0.1192
vn -0.2269 0.9061 0.3570
vn 0.1957 0.9167 0.3484
vn -0.5950 0.4614 -0.6580
vn 0.0041 0.9924 0.1228
vn -0.0228 0.9944 0.1032
vn -0.0219 0.9898 0.1406
vn -0.0256 0.9992 -0.0302
vn -0.0512 0.9973 -0.0514
vn -0.0261 0.9983 -0.0522
vn -0.0243 0.9991 0.0358
vn -0.0157 0.9998 -0.0095
vn -0.0237 0.9978 0.0623
vn 0.0366 0.9984 0.0424
vn -0.0233 0.9963 0.0825
vn 0.0352 0.9975 0.0611
vn 0.0361 0.9949 0.0942
vn -0.0487 0.9911 0.1239
vn -0.0820 0.9919 0.0967
vn -0.0008 0.9986 -0.0524
vn -0.0347 0.9993 -0.0091
vn -0.0847 0.9954 0.0449
vn -0.0826 0.9945 0.0635
vn -0.0805 0.9933 0.0827
vn 0.0340 0.9962 0.0804
usemtl Material
s 1
f 37/1/1 2/2/2 30/3/3
f 29/4/4 3/5/5 1/6/6
f 14/7/7 2/8/2 9/9/8
f 1/10/6 33/11/9 29/12/4
f 5/13/10 34/14/11 33/11/9
f 6/15/12 35/16/13 34/14/11
f 7/17/14 36/18/15 35/16/13
f 36/18/15 9/19/8 37/1/1
f 1/20/6 10/21/16 5/22/10
f 5/22/10 11/23/17 6/24/12
f 6/24/12 12/25/18 7/26/14
f 12/25/18 8/27/19 7/26/14
f 13/28/20 9/9/8 8/27/19
f 2/29/2 32/30/21 30/31/3
f 37/32/1 16/33/22 23/34/23
f 29/4/4 17/35/24 31/36/25
f 16/37/22 28/38/26 23/39/23
f 33/40/9 15/41/27 29/42/4
f 34/43/11 19/44/28 33/40/9
f 35/45/13 20/46/29 34/43/11
f 36/47/15 21/48/30 35/45/13
f 36/47/15 23/34/23 22/49/31
f 15/50/27 24/51/32 17/52/24
f 19/53/28 25/54/33 24/51/32
f 20/55/29 26/56/34 25/54/33
f 22/57/31 26/56/34 21/58/30
f 23/39/23 27/59/35 22/57/31
f 16/60/22 32/30/21 18/61/36
f 40/62/37 66/63/38 38/64/39
f 39/65/40 51/66/41 46/67/42
f 47/68/43 38/69/39 42/70/44
f 48/71/45 42/70/44 43/72/46
f 49/73/47 43/72/46 44/74/48
f 45/75/49 49/73/47 44/74/48
f 46/67/42 50/76/50 45/75/49
f 69/77/51 39/78/40 67/79/52
f 54/80/53 66/63/38 68/81/54
f 65/82/55 53/83/56 60/84/57
f 61/85/58 52/86/59 54/87/53
f 62/88/60 56/89/61 61/85/58
f 63/90/62 57/91/63 62/88/60
f 63/90/62 59/92/64 58/93/65
f 64/94/66 60/84/57 59/92/64
f 69/77/51 53/95/56 55/96/67
f 31/97/25 40/98/37 3/99/5
f 14/100/7 41/101/68 4/102/69
f 10/103/16 40/98/37 47/104/43
f 10/103/16 48/105/45 11/106/17
f 12/107/18 48/105/45 49/108/47
f 12/107/18 50/109/50 13/110/20
f 14/100/7 50/109/50 51/111/41
f 32/112/21 41/101/68 69/113/51
f 31/97/25 54/114/53 68/115/54
f 28/116/26 55/117/67 65/118/55
f 24/119/32 54/114/53 17/120/24
f 24/119/32 62/121/60 61/122/58
f 26/123/34 62/121/60 25/124/33
f 26/123/34 64/125/66 63/126/62
f 28/116/26 64/125/66 27/127/35
f 32/112/21 55/117/67 18/128/36
f 37/1/1 9/19/8 2/2/2
f 29/4/4 31/36/25 3/5/5
f 14/7/7 4/129/69 2/8/2
f 1/10/6 5/13/10 33/11/9
f 5/13/10 6/15/12 34/14/11
f 6/15/12 7/17/14 35/16/13
f 7/17/14 8/130/19 36/18/15
f 36/18/15 8/130/19 9/19/8
f 1/20/6 3/131/5 10/21/16
f 5/22/10 10/21/16 11/23/17
f 6/24/12 11/23/17 12/25/18
f 12/25/18 13/28/20 8/27/19
f 13/28/20 14/7/7 9/9/8
f 2/29/2 4/132/69 32/30/21
f 37/32/1 30/133/3 16/33/22
f 29/4/4 15/134/27 17/35/24
f 16/37/22 18/135/36 28/38/26
f 33/40/9 19/44/28 15/41/27
f 34/43/11 20/46/29 19/44/28
f 35/45/13 21/48/30 20/46/29
f 36/47/15 22/49/31 21/48/30
f 36/47/15 37/32/1 23/34/23
f 15/50/27 19/53/28 24/51/32
f 19/53/28 20/55/29 25/54/33
f 20/55/29 21/58/30 26/56/34
f 22/57/31 27/59/35 26/56/34
f 23/39/23 28/38/26 27/59/35
f 16/60/22 30/31/3 32/30/21
f 40/62/37 68/81/54 66/63/38
f 39/65/40 41/136/68 51/66/41
f 47/68/43 40/137/37 38/69/39
f 48/71/45 47/68/43 42/70/44
f 49/73/47 48/71/45 43/72/46
f 45/75/49 50/76/50 49/73/47
f 46/67/42 51/66/41 50/76/50
f 69/77/51 41/138/68 39/78/40
f 54/80/53 52/139/59 66/63/38
f 65/82/55 55/140/67 53/83/56
f 61/85/58 56/89/61 52/86/59
f 62/88/60 57/91/63 56/89/61
f 63/90/62 58/93/65 57/91/63
f 63/90/62 64/94/66 59/92/64
f 64/94/66 65/82/55 60/84/57
f 69/77/51 67/79/52 53/95/56
f 31/97/25 68/115/54 40/98/37
f 14/100/7 51/111/41 41/101/68
f 10/103/16 3/99/5 40/98/37
f 10/103/16 47/104/43 48/105/45
f 12/107/18 11/106/17 48/105/45
f 12/107/18 49/108/47 50/109/50
f 14/100/7 13/110/20 50/109/50
f 32/112/21 4/102/69 41/101/68
f 31/97/25 17/120/24 54/114/53
f 28/116/26 18/128/36 55/117/67
f 24/119/32 61/122/58 54/114/53
f 24/119/32 25/124/33 62/121/60
f 26/123/34 63/126/62 62/121/60
f 26/123/34 27/127/35 64/125/66
f 28/116/26 65/118/55 64/125/66
f 32/112/21 69/113/51 55/117/67
usemtl Material.001
f 87/141/70 70/142/71 75/143/72
f 74/144/73 86/145/74 76/146/75
f 73/147/76 88/148/77 74/144/73
f 72/149/78 89/150/79 73/147/76
f 71/151/80 90/152/81 72/149/78
f 84/153/82 71/151/80 70/142/71
f 82/154/83 70/142/71 77/155/84
f 83/156/85 74/144/73 76/146/75
f 81/157/86 73/147/76 74/144/73
f 80/158/87 72/149/78 73/147/76
f 79/159/88 71/151/80 72/149/78
f 77/155/84 71/151/80 78/160/89
f 87/141/70 84/153/82 70/142/71
f 74/144/73 88/148/77 86/145/74
f 73/147/76 89/150/79 88/148/77
f 72/149/78 90/152/81 89/150/79
f 71/151/80 85/161/90 90/152/81
f 84/153/82 85/161/90 71/151/80
f 82/154/83 75/143/72 70/142/71
f 83/156/85 81/157/86 74/144/73
f 81/157/86 80/158/87 73/147/76
f 80/158/87 79/159/88 72/149/78
f 79/159/88 78/160/89 71/151/80
f 77/155/84 70/142/71 71/151/80
